<svg width="300" height="240" xmlns="http://www.w3.org/2000/svg"><defs><linearGradient x1="100%" y1="0%" x2="100%" y2="100%" id="a"><stop stop-color="#00339A" offset="19.95%"/><stop stop-color="#125DF6" offset="100%"/></linearGradient></defs><g fill="none" fill-rule="evenodd"><path d="M0 0h40v40H0z"/><path d="M3.898 15.864a5.976 5.976 0 0 1 8.419-.737L26.703 27.2a5.976 5.976 0 0 1-7.682 9.155L4.635 24.282a5.976 5.976 0 0 1-.737-8.418z" fill="url(#a)"/><path d="M4.643 15.137 19.03 3.065a5.976 5.976 0 1 1 7.682 9.155L12.325 24.292a5.976 5.976 0 0 1-7.682-9.155z" fill="#125DF6"/><path d="M26.856 20.007a5.122 5.122 0 1 0 10.244 0 5.122 5.122 0 0 0-10.244 0z" fill="#4DE1BB" fill-rule="nonzero"/></g></svg>